{
	"asset":{
		"generator":"Khronos glTF Blender I/O v4.2.60",
		"version":"2.0"
	},
	"scene":0,
	"scenes":[
		{
			"name":"Scene",
			"nodes":[
				0,
				1,
				2,
				3
			]
		}
	],
	"nodes":[
		{
			"mesh":0,
			"name":"Brain_Part_02",
			"rotation":[
				0.7117129564285278,
				0,
				0,
				0.7024704813957214
			],
			"scale":[
				3.586127758026123,
				3.5861282348632812,
				3.5861282348632812
			],
			"translation":[
				-0.7934076189994812,
				0.5521368980407715,
				-0.09638476371765137
			]
		},
		{
			"mesh":1,
			"name":"Brain_Part_04",
			"rotation":[
				0.7117129564285278,
				0,
				0,
				0.7024704813957214
			],
			"scale":[
				3.586127758026123,
				3.5861282348632812,
				3.5861282348632812
			],
			"translation":[
				0.04578191041946411,
				1.8733010292053223,
				0.7484493255615234
			]
		},
		{
			"mesh":2,
			"name":"Brain_Part_05",
			"rotation":[
				0.7117129564285278,
				0,
				0,
				0.7024704813957214
			],
			"scale":[
				3.586127758026123,
				3.5861282348632812,
				3.5861282348632812
			],
			"translation":[
				-0.7677605152130127,
				1.2829437255859375,
				0.8894329071044922
			]
		},
		{
			"mesh":3,
			"name":"Brain_Part_06",
			"rotation":[
				0.7117129564285278,
				0,
				0,
				0.7024704813957214
			],
			"scale":[
				3.586127758026123,
				3.5861282348632812,
				3.5861282348632812
			],
			"translation":[
				-1.4918196201324463,
				1.8733010292053223,
				0.7484493255615234
			]
		}
	],
	"materials":[
		{
			"doubleSided":true,
			"name":"BRAIN_TEXTURE_blinn2",
			"pbrMetallicRoughness":{
				"baseColorFactor":[
					0.8227818012237549,
					0.01370198279619217,
					0.045186251401901245,
					1
				],
				"metallicFactor":0,
				"roughnessFactor":0.5
			}
		}
	],
	"meshes":[
		{
			"name":"Untitled.005",
			"primitives":[
				{
					"attributes":{
						"POSITION":0,
						"NORMAL":1,
						"TEXCOORD_0":2
					},
					"indices":3,
					"material":0
				}
			]
		},
		{
			"name":"Untitled.003",
			"primitives":[
				{
					"attributes":{
						"POSITION":4,
						"NORMAL":5,
						"TEXCOORD_0":6,
						"TEXCOORD_1":7
					},
					"indices":8,
					"material":0
				}
			]
		},
		{
			"name":"Untitled.004",
			"primitives":[
				{
					"attributes":{
						"POSITION":9,
						"NORMAL":10,
						"TEXCOORD_0":11
					},
					"indices":12,
					"material":0
				}
			]
		},
		{
			"name":"Untitled.002",
			"primitives":[
				{
					"attributes":{
						"POSITION":13,
						"NORMAL":14,
						"TEXCOORD_0":15,
						"TEXCOORD_1":16
					},
					"indices":17,
					"material":0
				}
			]
		}
	],
	"accessors":[
		{
			"bufferView":0,
			"componentType":5126,
			"count":28769,
			"max":[
				0.4303946793079376,
				0.2161475419998169,
				0.14938056468963623
			],
			"min":[
				-0.4303993880748749,
				-0.24971187114715576,
				-0.22577202320098877
			],
			"type":"VEC3"
		},
		{
			"bufferView":1,
			"componentType":5126,
			"count":28769,
			"type":"VEC3"
		},
		{
			"bufferView":2,
			"componentType":5126,
			"count":28769,
			"type":"VEC2"
		},
		{
			"bufferView":3,
			"componentType":5123,
			"count":40734,
			"type":"SCALAR"
		},
		{
			"bufferView":4,
			"componentType":5126,
			"count":76444,
			"max":[
				0.3148539662361145,
				0.6792975068092346,
				0.37723761796951294
			],
			"min":[
				-0.2207905501127243,
				-0.6369249224662781,
				-0.46005791425704956
			],
			"type":"VEC3"
		},
		{
			"bufferView":5,
			"componentType":5126,
			"count":76444,
			"type":"VEC3"
		},
		{
			"bufferView":6,
			"componentType":5126,
			"count":76444,
			"type":"VEC2"
		},
		{
			"bufferView":7,
			"componentType":5126,
			"count":76444,
			"type":"VEC2"
		},
		{
			"bufferView":8,
			"componentType":5125,
			"count":114666,
			"type":"SCALAR"
		},
		{
			"bufferView":9,
			"componentType":5126,
			"count":6894,
			"max":[
				0.3363898992538452,
				0.29457029700279236,
				0.499733567237854
			],
			"min":[
				-0.3363853693008423,
				-0.2597934305667877,
				-0.316916823387146
			],
			"type":"VEC3"
		},
		{
			"bufferView":10,
			"componentType":5126,
			"count":6894,
			"type":"VEC3"
		},
		{
			"bufferView":11,
			"componentType":5126,
			"count":6894,
			"type":"VEC2"
		},
		{
			"bufferView":12,
			"componentType":5123,
			"count":9714,
			"type":"SCALAR"
		},
		{
			"bufferView":13,
			"componentType":5126,
			"count":76444,
			"max":[
				0.2207905501127243,
				0.6792975068092346,
				0.37723761796951294
			],
			"min":[
				-0.3148539662361145,
				-0.6369249224662781,
				-0.46005791425704956
			],
			"type":"VEC3"
		},
		{
			"bufferView":14,
			"componentType":5126,
			"count":76444,
			"type":"VEC3"
		},
		{
			"bufferView":15,
			"componentType":5126,
			"count":76444,
			"type":"VEC2"
		},
		{
			"bufferView":16,
			"componentType":5126,
			"count":76444,
			"type":"VEC2"
		},
		{
			"bufferView":17,
			"componentType":5125,
			"count":114666,
			"type":"SCALAR"
		}
	],
	"bufferViews":[
		{
			"buffer":0,
			"byteLength":345228,
			"byteOffset":0,
			"target":34962
		},
		{
			"buffer":0,
			"byteLength":345228,
			"byteOffset":345228,
			"target":34962
		},
		{
			"buffer":0,
			"byteLength":230152,
			"byteOffset":690456,
			"target":34962
		},
		{
			"buffer":0,
			"byteLength":81468,
			"byteOffset":920608,
			"target":34963
		},
		{
			"buffer":0,
			"byteLength":917328,
			"byteOffset":1002076,
			"target":34962
		},
		{
			"buffer":0,
			"byteLength":917328,
			"byteOffset":1919404,
			"target":34962
		},
		{
			"buffer":0,
			"byteLength":611552,
			"byteOffset":2836732,
			"target":34962
		},
		{
			"buffer":0,
			"byteLength":611552,
			"byteOffset":3448284,
			"target":34962
		},
		{
			"buffer":0,
			"byteLength":458664,
			"byteOffset":4059836,
			"target":34963
		},
		{
			"buffer":0,
			"byteLength":82728,
			"byteOffset":4518500,
			"target":34962
		},
		{
			"buffer":0,
			"byteLength":82728,
			"byteOffset":4601228,
			"target":34962
		},
		{
			"buffer":0,
			"byteLength":55152,
			"byteOffset":4683956,
			"target":34962
		},
		{
			"buffer":0,
			"byteLength":19428,
			"byteOffset":4739108,
			"target":34963
		},
		{
			"buffer":0,
			"byteLength":917328,
			"byteOffset":4758536,
			"target":34962
		},
		{
			"buffer":0,
			"byteLength":917328,
			"byteOffset":5675864,
			"target":34962
		},
		{
			"buffer":0,
			"byteLength":611552,
			"byteOffset":6593192,
			"target":34962
		},
		{
			"buffer":0,
			"byteLength":611552,
			"byteOffset":7204744,
			"target":34962
		},
		{
			"buffer":0,
			"byteLength":458664,
			"byteOffset":7816296,
			"target":34963
		}
	],
	"buffers":[
		{
			"byteLength":8274960,
			"uri":"brain.bin"
		}
	]
}
